<svg width="88" height="88" viewBox="0 0 88 88" fill="none" xmlns="http://www.w3.org/2000/svg">
<g clip-path="url(#clip0)">
<path d="M7.68784 13.3703C10.7457 13.3703 13.2246 10.8914 13.2246 7.83359C13.2246 4.77575 10.7457 2.29688 7.68784 2.29688C4.62999 2.29688 2.15112 4.77575 2.15112 7.83359C2.15112 10.8914 4.62999 13.3703 7.68784 13.3703Z" fill="#339ECC"/>
<path d="M7.68784 86.5273C10.7457 86.5273 13.2246 84.0484 13.2246 80.9906C13.2246 77.9327 10.7457 75.4539 7.68784 75.4539C4.62999 75.4539 2.15112 77.9327 2.15112 80.9906C2.15112 84.0484 4.62999 86.5273 7.68784 86.5273Z" fill="#339ECC"/>
<path d="M80.8451 86.5273C83.9029 86.5273 86.3818 84.0484 86.3818 80.9906C86.3818 77.9327 83.9029 75.4539 80.8451 75.4539C77.7872 75.4539 75.3083 77.9327 75.3083 80.9906C75.3083 84.0484 77.7872 86.5273 80.8451 86.5273Z" fill="#339ECC"/>
<path d="M80.8451 13.3701C83.9029 13.3701 86.3818 10.8912 86.3818 7.83335C86.3818 4.7755 83.9029 2.29663 80.8451 2.29663C77.7872 2.29663 75.3083 4.7755 75.3083 7.83335C75.3083 10.8912 77.7872 13.3701 80.8451 13.3701Z" fill="#339ECC"/>
<path d="M10.0887 6.05926C8.0318 6.53197 6.38477 8.17483 5.91224 10.2339C5.59365 11.6221 3.71988 11.9474 2.97215 10.7353C0.770357 7.16551 3.22448 2.56151 7.33726 2.30773C8.53374 2.23384 9.65506 2.54081 10.5916 3.11899C11.804 3.86727 11.4775 5.73995 10.0887 6.05926Z" fill="#65E2D9"/>
<path d="M83.246 6.0592C81.1891 6.53209 79.5422 8.17477 79.0695 10.2339C78.751 11.6221 76.8772 11.9474 76.1295 10.7353C75.552 9.79912 75.2456 8.67834 75.3195 7.48259C75.5736 3.36655 80.1816 0.916595 83.7489 3.11876C84.9613 3.86721 84.6348 5.73989 83.246 6.0592Z" fill="#65E2D9"/>
<path d="M10.0888 79.2164C8.03188 79.6893 6.38502 81.332 5.91231 83.3911C5.59373 84.7793 3.71996 85.1046 2.97223 83.8925C2.39478 82.9563 2.08835 81.8356 2.16223 80.6398C2.41638 76.5238 7.02438 74.0738 10.5917 76.276C11.8041 77.0244 11.4775 78.8971 10.0888 79.2164Z" fill="#65E2D9"/>
<path d="M83.246 79.2164C81.1891 79.6893 79.5422 81.332 79.0695 83.3911C78.751 84.7793 76.8772 85.1046 76.1295 83.8925C75.552 82.9563 75.2456 81.8356 75.3195 80.6398C75.5736 76.5238 80.1816 74.0738 83.7489 76.276C84.9613 77.0244 84.6348 78.8971 83.246 79.2164Z" fill="#65E2D9"/>
<path d="M44.2665 72.5495C59.8123 72.5495 72.4148 59.9471 72.4148 44.4012C72.4148 28.8554 59.8123 16.2529 44.2665 16.2529C28.7206 16.2529 16.1182 28.8554 16.1182 44.4012C16.1182 59.9471 28.7206 72.5495 44.2665 72.5495Z" fill="#F1FAFC"/>
<path d="M44.2666 44.4011V72.5494C45.1113 72.0322 60.039 62.5242 60.039 44.4011H44.2666Z" fill="#CAF2FC"/>
<path d="M44.2666 16.2529V44.4012H60.039C60.039 26.2782 45.1113 16.7701 44.2666 16.2529Z" fill="#D6F4FC"/>
<path d="M44.2666 16.2529C45.1113 16.7701 60.039 26.2782 60.039 44.4012H72.4149C72.4149 28.8556 59.8122 16.2529 44.2666 16.2529Z" fill="#BDEFFC"/>
<path d="M60.039 44.4011C60.039 62.5242 45.1113 72.0322 44.2666 72.5494C59.8122 72.5494 72.4149 59.9468 72.4149 44.4011H60.039Z" fill="#B0EDFC"/>
<path d="M44.2665 44.4011V72.5494C43.4218 72.0322 28.4941 62.5242 28.4941 44.4011H44.2665Z" fill="#DBF5FC"/>
<path d="M44.2665 16.2529V44.4012H28.4941C28.4941 26.2782 43.4218 16.7701 44.2665 16.2529Z" fill="#E8F8FC"/>
<path d="M28.4941 44.4011C28.4941 62.5242 43.4218 72.0322 44.2665 72.5494C28.7208 72.5494 16.1182 59.9468 16.1182 44.4011H28.4941Z" fill="#E5F8FC"/>
<path d="M73.8562 44.4121C73.8562 28.0964 60.5823 14.8224 44.2666 14.8224C27.9509 14.8224 14.6769 28.0964 14.6769 44.4121C14.6769 52.0947 17.6208 59.1022 22.4387 64.3677L16.146 70.6603C15.2282 71.5779 15.891 73.1395 17.173 73.1395C17.5446 73.1395 17.9163 72.9977 18.1999 72.7141L24.5016 66.4124C29.7745 71.1544 36.715 74.0023 44.2682 74.0019C60.5834 74.0008 73.8562 60.7272 73.8562 44.4121ZM58.5458 42.9598H45.7188V19.0899C49.7617 22.2817 57.957 30.2746 58.5458 42.9598ZM42.8143 17.7669V42.9598H29.9893C30.4055 34.19 34.52 27.6847 38.0028 23.7013C38.5307 23.0975 38.4692 22.1801 37.8654 21.6522C37.2616 21.1241 36.3442 21.1858 35.8163 21.7896C32.0048 26.1487 27.499 33.2914 27.0822 42.9598H17.6214C18.3522 29.3992 29.2537 18.4977 42.8143 17.7669ZM17.6214 45.8643H27.081C27.6056 58.1967 34.7133 66.487 39.413 70.6536C27.5495 68.4645 18.2941 58.3477 17.6214 45.8643ZM29.9864 45.8643H42.8143V69.7199C35.6284 64.0157 30.4369 55.6541 29.9864 45.8643ZM45.7188 71.0573V45.8643H58.5435C58.1138 54.9391 53.7378 61.6104 50.0345 65.6778C49.4945 66.2708 49.5377 67.1894 50.1308 67.7293C50.7238 68.2693 51.6424 68.2261 52.1823 67.633C56.232 63.1852 61.0208 55.8651 61.4509 45.8643H66.0504C66.8524 45.8643 67.5026 45.2141 67.5026 44.4121C67.5026 43.6101 66.8524 42.9598 66.0504 42.9598H61.4523C60.9286 30.6304 53.824 22.3391 49.1263 18.1719C61.528 20.4631 70.9517 31.3572 70.9517 44.4121C70.9517 58.6391 59.7603 70.3005 45.7188 71.0573ZM76.9306 75.2038L69.891 68.1642C69.3239 67.5971 68.4045 67.5971 67.8374 68.1642C67.2701 68.7313 67.2701 69.6508 67.8374 70.2179L74.9162 77.2967C72.0188 81.9305 75.3693 87.9797 80.8452 87.9797C84.6989 87.9797 87.8342 84.8444 87.8342 80.9907C87.8342 75.3819 81.5348 72.0791 76.9306 75.2038ZM80.8452 85.0752C78.5929 85.0752 76.7607 83.243 76.7607 80.9907C76.7607 78.7384 78.5929 76.9062 80.8452 76.9062C83.0975 76.9062 84.9296 78.7384 84.9296 80.9907C84.9296 83.243 83.0975 85.0752 80.8452 85.0752ZM11.3817 13.7626L18.4606 20.8415C19.0279 21.4087 19.9471 21.4086 20.5142 20.8415C21.0815 20.2744 21.0815 19.3549 20.5142 18.7878L13.4748 11.748C16.5993 7.14381 13.2964 0.844482 7.68794 0.844482C3.83421 0.844482 0.698975 3.97972 0.698975 7.83345C0.698975 13.3172 6.75632 16.6546 11.3817 13.7626ZM7.68794 3.74899C9.9402 3.74899 11.7724 5.58119 11.7724 7.83345C11.7724 10.0857 9.9402 11.9179 7.68794 11.9179C5.43568 11.9179 3.60348 10.0857 3.60348 7.83345C3.60348 5.58119 5.43568 3.74899 7.68794 3.74899ZM7.68794 74.0017C3.83421 74.0017 0.698975 77.137 0.698975 80.9907C0.698975 84.8444 3.83421 87.9797 7.68794 87.9797C11.5417 87.9797 14.6769 84.8444 14.6769 80.9907C14.6769 77.137 11.5417 74.0017 7.68794 74.0017ZM7.68794 85.0752C5.43568 85.0752 3.60348 83.243 3.60348 80.9907C3.60348 78.7384 5.43568 76.9062 7.68794 76.9062C9.9402 76.9062 11.7724 78.7384 11.7724 80.9907C11.7724 83.243 9.9402 85.0752 7.68794 85.0752ZM69.891 20.6599L76.9306 13.6203C81.5348 16.7448 87.8342 13.4419 87.8342 7.83345C87.8342 3.97972 84.6989 0.844482 80.8452 0.844482C75.3615 0.844482 72.024 6.90183 74.916 11.5273L67.8372 18.6061C67.2699 19.1732 67.2699 20.0926 67.8372 20.6597C68.4045 21.227 69.3239 21.227 69.891 20.6599ZM80.8452 3.74899C83.0975 3.74899 84.9296 5.58119 84.9296 7.83345C84.9296 10.0857 83.0975 11.9179 80.8452 11.9179C78.5929 11.9179 76.7607 10.0857 76.7607 7.83345C76.7607 5.58119 78.5929 3.74899 80.8452 3.74899Z" fill="#1B3164"/>
</g>
<defs>
<clipPath id="clip0">
<rect width="87.1352" height="87.1352" fill="white" transform="translate(0.698975 0.844482)"/>
</clipPath>
</defs>
</svg>
