<svg width="120" height="121" viewBox="0 0 120 121" fill="none" xmlns="http://www.w3.org/2000/svg">
<g clip-path="url(#clip0)">
<path d="M98.25 30.6582L79.1719 53.417L66.57 54.0854L67.2384 41.4836L90 22.4026L91.4184 11.4882C79.2923 3.73667 64.7303 0.736969 50.5278 3.06492C36.3253 5.39287 23.483 12.8844 14.466 24.1016C5.44907 35.3188 0.892809 49.4711 1.67184 63.842C2.45086 78.213 8.51029 91.7898 18.687 101.967C28.8637 112.143 42.4406 118.203 56.8115 118.982C71.1824 119.761 85.3348 115.204 96.5519 106.187C107.769 97.1705 115.261 84.3282 117.589 70.1257C119.917 55.9232 116.917 41.3613 109.165 29.2351L98.25 30.6582Z" fill="#65E2D9"/>
<path d="M79.172 53.4169L66.5701 54.0853L67.2385 41.4834L86.597 25.2572C77.6277 18.515 66.436 15.4238 55.2778 16.6065C44.1197 17.7893 33.8247 23.1582 26.4683 31.6309C19.1119 40.1037 15.241 51.0502 15.6359 62.2639C16.0308 73.4777 20.6622 84.1248 28.5964 92.059C36.5306 99.9932 47.1777 104.625 58.3915 105.02C69.6052 105.414 80.5518 101.544 89.0245 94.1871C97.4972 86.8307 102.866 76.5357 104.049 65.3776C105.232 54.2194 102.14 43.0277 95.3982 34.0584L79.172 53.4169Z" fill="#4FABF7"/>
<path d="M79.1717 53.4168L66.5699 54.0852L67.2383 41.4833L75.3945 34.648C69.0515 30.8897 61.5548 29.5756 54.3117 30.9525C47.0685 32.3295 40.577 36.3027 36.0555 42.1265C31.5341 47.9502 29.2937 55.2239 29.7549 62.5824C30.216 69.9408 33.3471 76.8779 38.5603 82.0916C43.7734 87.3052 50.7103 90.4369 58.0687 90.8987C65.4271 91.3605 72.701 89.1207 78.5251 84.5998C84.3493 80.0789 88.3231 73.5877 89.7007 66.3447C91.0782 59.1016 89.7649 51.6048 86.007 45.2615L79.1717 53.4168Z" fill="#73C3F9"/>
<path d="M66.5701 54.0853L66.9939 46.0959C63.5394 44.4284 59.6061 44.0378 55.8912 44.9932C52.1762 45.9487 48.9195 48.1886 46.6983 51.3159C44.477 54.4431 43.4347 58.2558 43.7561 62.0782C44.0774 65.9006 45.7417 69.4858 48.4539 72.1983C51.1661 74.9108 54.751 76.5755 58.5734 76.8973C62.3957 77.2192 66.2085 76.1773 69.3361 73.9565C72.4636 71.7356 74.7039 68.4792 75.6598 64.7643C76.6158 61.0495 76.2256 57.1162 74.5585 53.6615L66.5701 54.0853Z" fill="#FCF9F0"/>
<path d="M98.2527 30.6528L115.627 28.3944L118.359 25.6634L106.671 20.6094L98.2527 30.6528Z" fill="#FFC839"/>
<path d="M90.0017 22.4025L92.2602 5.02777L94.9911 2.2959L100.045 13.9837L90.0017 22.4025Z" fill="#FFC839"/>
<path d="M106.671 20.6106L100.045 13.9844L67.2383 41.4841L66.7002 51.6353L58.8402 59.4962C58.5327 59.8038 58.3599 60.221 58.3599 60.6559C58.3599 61.0909 58.5327 61.5081 58.8402 61.8156C59.1478 62.1232 59.5649 62.296 59.9999 62.296C60.4349 62.296 60.852 62.1232 61.1596 61.8156L69.0196 53.9556L79.1718 53.4175L106.671 20.6106Z" fill="#8EEF5B"/>
</g>
<defs>
<clipPath id="clip0">
<rect width="120" height="120" fill="white" transform="translate(0 0.660156)"/>
</clipPath>
</defs>
</svg>
