<svg width="64" height="64" viewBox="0 0 64 64" fill="none" xmlns="http://www.w3.org/2000/svg">
<g clip-path="url(#clip0)">
<path d="M52.2859 15.9859L42.1549 28.0713L35.463 28.4263L35.818 21.7344L47.9049 11.602L48.6581 5.80616C42.2189 1.68989 34.4861 0.0969763 26.9443 1.33317C19.4024 2.56937 12.5828 6.54757 7.79459 12.5042C3.00636 18.4607 0.586881 25.976 1.00056 33.6073C1.41425 41.2386 4.63194 48.4482 10.036 53.8523C15.4401 59.2564 22.6497 62.4741 30.281 62.8877C37.9123 63.3014 45.4276 60.8819 51.3841 56.0937C57.3407 51.3055 61.3189 44.4859 62.5551 36.944C63.7913 29.4022 62.1984 21.6695 58.0821 15.2302L52.2859 15.9859Z" fill="#65E2D9"/>
<path d="M42.1549 28.071L35.463 28.4259L35.818 21.7341L46.0977 13.1175C41.3349 9.53727 35.3918 7.89574 29.4665 8.52383C23.5413 9.15192 18.0744 12.0029 14.168 16.5021C10.2616 21.0014 8.20602 26.8142 8.41573 32.769C8.62543 38.7237 11.0848 44.3776 15.2981 48.5909C19.5113 52.8041 25.1652 55.2635 31.12 55.4732C37.0747 55.6829 42.8876 53.6274 47.3868 49.7209C51.886 45.8145 54.737 40.3477 55.3651 34.4224C55.9932 28.4971 54.3517 22.5541 50.7714 17.7912L42.1549 28.071Z" fill="#4FABF7"/>
<path d="M42.1549 28.0713L35.463 28.4262L35.8179 21.7343L40.1491 18.1046C36.7808 16.1088 32.7999 15.411 28.9536 16.1422C25.1073 16.8734 21.6601 18.9833 19.2591 22.0758C16.8581 25.1684 15.6684 29.0309 15.9133 32.9384C16.1582 36.8459 17.8209 40.5297 20.5892 43.2982C23.3575 46.0668 27.0411 47.7298 30.9486 47.975C34.8561 48.2203 38.7188 47.0309 41.8115 44.6302C44.9043 42.2295 47.0144 38.7825 47.746 34.9363C48.4775 31.09 47.7801 27.1091 45.7846 23.7406L42.1549 28.0713Z" fill="#73C3F9"/>
<path d="M35.463 28.426L35.688 24.1835C33.8536 23.298 31.765 23.0906 29.7922 23.5979C27.8195 24.1053 26.0901 25.2947 24.9106 26.9554C23.731 28.6161 23.1776 30.6407 23.3482 32.6705C23.5188 34.7002 24.4026 36.6041 25.8428 38.0445C27.2831 39.4849 29.1868 40.3689 31.2165 40.5398C33.2463 40.7107 35.271 40.1574 36.9318 38.9781C38.5926 37.7988 39.7822 36.0695 40.2899 34.0969C40.7975 32.1242 40.5903 30.0355 39.705 28.201L35.463 28.426Z" fill="#FCF9F0"/>
<path d="M52.2874 15.9837L61.5137 14.7844L62.9644 13.3342L56.7579 10.6504L52.2874 15.9837Z" fill="#FFC839"/>
<path d="M47.906 11.6019L49.1053 2.3755L50.5555 0.924805L53.2393 7.13131L47.906 11.6019Z" fill="#FFC839"/>
<path d="M56.7579 10.6505L53.2392 7.13184L35.818 21.7348L35.5322 27.1254L31.3584 31.2997C31.195 31.463 31.1033 31.6846 31.1033 31.9155C31.1033 32.1465 31.195 32.368 31.3584 32.5314C31.5217 32.6947 31.7432 32.7864 31.9742 32.7864C32.2052 32.7864 32.4267 32.6947 32.59 32.5314L36.7638 28.3575L42.1549 28.0718L56.7579 10.6505Z" fill="#8EEF5B"/>
</g>
<defs>
<clipPath id="clip0">
<rect width="63.7229" height="63.7229" fill="white" transform="translate(0.112793 0.0556641)"/>
</clipPath>
</defs>
</svg>
