<svg width="544" height="409" viewBox="0 0 544 409" fill="none" xmlns="http://www.w3.org/2000/svg">
<path d="M114.24 158.29C114.24 158.29 78.5532 193.296 85.3532 218.796C92.1532 244.296 129.92 254.156 129.92 254.156L137.591 238.884L114.24 158.29Z" fill="#65E2D9"/>
<path opacity="0.08" d="M114.24 158.29C114.24 158.29 78.5532 193.296 85.3532 218.796C92.1532 244.296 129.92 254.156 129.92 254.156L137.591 238.884L114.24 158.29Z" fill="black"/>
<path opacity="0.45" d="M273.02 373.387C398.019 373.387 499.351 360.966 499.351 345.643C499.351 330.321 398.019 317.899 273.02 317.899C148.021 317.899 46.689 330.321 46.689 345.643C46.689 360.966 148.021 373.387 273.02 373.387Z" fill="#E6E6E6"/>
<path d="M398.031 51.2852H132.776V235.334H398.031V51.2852Z" fill="#E6E6E6"/>
<path opacity="0.08" d="M140.08 106.352C146.845 113.525 151.287 122.574 152.823 132.314C154.918 147.859 169.592 155.924 169.592 155.924C169.592 155.924 189.53 148.321 200.41 158.29C207.26 164.703 213.158 172.063 217.926 180.145L256.904 118.224L263.106 120.944L242.814 154.006C242.814 154.006 251.831 159.704 246.282 167.416C240.734 175.127 208.08 245.14 208.08 245.14L172.72 245.765L160.29 204.734L134.45 148.43L125.746 123.787L132.845 107.467L140.08 106.352Z" fill="black"/>
<path d="M132.831 132.124L137.591 146.404L126.29 153.585L122.223 128.833L132.831 132.124Z" fill="#F4A28C"/>
<path d="M118.32 115.028C118.911 113.67 119.831 112.481 120.997 111.569C122.164 110.656 123.54 110.05 125 109.804C126.46 109.558 127.959 109.681 129.359 110.161C130.76 110.641 132.019 111.463 133.022 112.553C137.836 117.693 143.63 125.853 137.102 130.233C127.065 137.033 117.844 124.33 117.844 124.33C117.089 121.25 117.255 118.015 118.32 115.028Z" fill="#F4A28C"/>
<path opacity="0.61" d="M372.232 160.629H162.751V217.436H372.232V160.629Z" fill="#C9C9C9"/>
<path d="M125.677 123.788C125.677 123.788 123.107 121.639 121.937 124.685C120.768 127.732 125.324 129.228 126.684 127.677C128.044 126.127 125.677 123.788 125.677 123.788Z" fill="#F4A28C"/>
<path d="M398.031 233.39H160.289V245.698H398.031V233.39Z" fill="#A5A5A5"/>
<path d="M130.491 220.328L92.563 239.504L108.517 271.06L146.445 251.885L130.491 220.328Z" fill="#FFD200"/>
<path d="M113.098 160.588C114.801 156.804 117.301 153.431 120.427 150.701C123.554 147.971 127.233 145.949 131.213 144.772C146.567 140.148 174.842 145.207 183.464 159.568C195.255 179.234 178.024 241.699 178.024 241.699L126.385 245.684C126.385 245.684 98.0015 194.507 113.098 160.588Z" fill="#65E2D9"/>
<path d="M177.983 241.699L171.196 330.412H160.466L150.892 261.487L127.16 245.698L177.983 241.699Z" fill="#24285B"/>
<path d="M127.16 245.697L112.363 330.412H123.869L148.716 260.032L127.16 245.697Z" fill="#24285B"/>
<path opacity="0.08" d="M135.673 143.411C135.673 143.411 111.52 221.203 181.233 226.317L177.983 241.698L126.385 245.683C126.385 245.683 106.529 212.554 108.977 177.03C108.977 177.03 109.412 157.202 123.365 148.47C127.06 145.925 131.257 144.2 135.673 143.411Z" fill="black"/>
<path d="M261.12 73.8486H162.751V141.196H261.12V73.8486Z" fill="#C9C9C9"/>
<path d="M115.056 330.221L108.12 335.334C107.873 335.528 107.692 335.794 107.602 336.095C107.512 336.396 107.518 336.717 107.617 337.015C107.717 337.313 107.907 337.573 108.16 337.759C108.413 337.945 108.717 338.048 109.031 338.054H120.646C121.05 338.054 121.437 337.894 121.723 337.608C122.008 337.322 122.169 336.935 122.169 336.531V330.193L115.056 330.221Z" fill="#65E2D9"/>
<path d="M169.551 134.762L190.06 93.5137L210.568 124.399L228.262 100.49L251.6 133.919L169.551 134.762Z" fill="white"/>
<path d="M210.569 102.53C214.602 102.53 217.872 99.2605 217.872 95.227C217.872 91.1936 214.602 87.9238 210.569 87.9238C206.535 87.9238 203.266 91.1936 203.266 95.227C203.266 99.2605 206.535 102.53 210.569 102.53Z" fill="white"/>
<path d="M169.864 330.221L176.378 335.334C176.62 335.534 176.794 335.804 176.878 336.106C176.962 336.408 176.952 336.729 176.848 337.025C176.745 337.321 176.553 337.579 176.299 337.763C176.044 337.947 175.74 338.048 175.426 338.054H167.171C166.59 338.056 166.014 337.943 165.477 337.721C164.94 337.5 164.452 337.174 164.042 336.764C163.631 336.353 163.305 335.865 163.084 335.328C162.862 334.791 162.749 334.215 162.751 333.634V330.193L169.864 330.221Z" fill="#65E2D9"/>
<path d="M260.783 111.506L257.638 109.69L224.849 166.484L227.993 168.299L260.783 111.506Z" fill="#24285B"/>
<path d="M156.713 144.363C154.144 148.492 152.783 153.257 152.783 158.12C152.783 162.982 154.144 167.747 156.713 171.876C162.343 181.396 178.717 199.865 189.91 212.091C191.174 213.472 192.747 214.534 194.501 215.188C196.254 215.842 198.138 216.07 199.997 215.854C201.857 215.637 203.638 214.982 205.194 213.943C206.751 212.903 208.038 211.509 208.95 209.874L232.995 167.483L224.835 162.247L202.789 194.561C202.789 194.561 187.68 145.043 156.713 144.363Z" fill="#65E2D9"/>
<path opacity="0.08" d="M394.631 107.522C394.631 107.522 384.431 98.6681 379.29 112.241C376.801 118.837 374.666 143.154 385.437 145.724C396.209 148.295 357.68 147.207 354.511 165.662C351.342 184.117 347.249 219.926 321.409 202.246L307.36 180.146C307.36 180.146 298.289 176.868 298.289 183.668C298.289 190.468 304.599 241.237 347.249 245.766H370.668L402.029 204.735L401.145 137.551L394.631 107.522Z" fill="black"/>
<path opacity="0.2" d="M156.713 144.363C154.144 148.492 152.783 153.257 152.783 158.12C152.783 162.982 154.144 167.747 156.713 171.876C162.343 181.396 178.717 199.865 189.91 212.091C191.174 213.472 192.747 214.534 194.501 215.188C196.254 215.842 198.138 216.07 199.997 215.854C201.857 215.637 203.638 214.982 205.194 213.943C206.751 212.903 208.038 211.509 208.95 209.874L232.995 167.483L224.835 162.247L202.789 194.561C202.789 194.561 187.68 145.043 156.713 144.363Z" fill="white"/>
<path d="M230.166 165.661C230.166 165.661 243.766 160.643 238.245 152.918C232.723 145.193 224.849 162.248 224.849 162.248L230.166 165.661Z" fill="#F4A28C"/>
<path d="M122.971 133.375L115.314 125.46C114.52 124.631 113.903 123.649 113.503 122.573C113.103 121.497 112.928 120.35 112.989 119.204C113.179 115.124 114.036 108.759 117.368 103.931C122.604 96.3828 129.608 93.5132 131.294 100.055C132.981 106.596 133.375 98.8308 137.591 102.299C141.807 105.767 140.937 107.807 137.591 109.656C134.246 111.506 127.31 114.158 126.711 119.666C126.113 125.174 131.294 129.662 122.971 133.375Z" fill="#24285B"/>
<path d="M371.729 80.3896H276.08V90.8208H371.729V80.3896Z" fill="#C9C9C9"/>
<path opacity="0.61" d="M371.729 101.143H276.08V111.574H371.729V101.143Z" fill="#C9C9C9"/>
<path opacity="0.21" d="M371.729 121.883H276.08V132.314H371.729V121.883Z" fill="#C9C9C9"/>
<path d="M393.04 145.656C393.04 145.656 370.586 142.664 366.085 161.418C361.583 180.172 360.93 206.176 342.965 211.371C324.999 216.566 314.935 180.499 314.935 180.499C314.935 180.499 310.746 170.38 306.245 169.007C301.743 167.633 298.506 177.602 306.245 183.722C306.245 183.722 312.759 229.785 347.344 228.167C381.929 226.548 393.04 179.044 393.04 145.656Z" fill="#F4A28C"/>
<path opacity="0.08" d="M393.04 145.656C393.04 145.656 370.586 142.664 366.085 161.418C361.583 180.172 360.93 206.176 342.965 211.371C324.999 216.566 314.935 180.499 314.935 180.499C314.935 180.499 310.746 170.38 306.245 169.007C301.743 167.633 298.506 177.602 306.245 183.722C306.245 183.722 312.759 229.785 347.344 228.167C381.929 226.548 393.04 179.044 393.04 145.656Z" fill="black"/>
<path d="M393.04 112.24C393.04 112.24 378.229 129.675 390.061 135.959C407.415 145.179 409.537 113.301 409.537 113.301L393.04 112.24Z" fill="#24285B"/>
<path d="M394.155 113.995C392.436 117.635 391.219 121.492 390.538 125.46C390.485 125.936 390.527 126.419 390.663 126.879C390.798 127.339 391.024 127.767 391.326 128.139C391.629 128.511 392.002 128.819 392.425 129.046C392.847 129.272 393.311 129.412 393.788 129.458C395.312 129.71 396.876 129.518 398.294 128.906C399.712 128.293 400.924 127.286 401.785 126.004L406.001 120.822C406.741 119.695 407.112 118.366 407.064 117.018C407.015 115.671 406.548 114.372 405.729 113.301C402.914 109.113 395.828 109.901 394.155 113.995Z" fill="#F4A28C"/>
<path d="M404.41 121.979L406.11 145.656H393L396.93 128.86L404.41 121.979Z" fill="#F4A28C"/>
<path d="M392.414 118.225L389.558 120.129C389.396 120.235 389.262 120.38 389.169 120.551C389.077 120.722 389.028 120.913 389.028 121.108C389.028 121.302 389.077 121.494 389.169 121.665C389.262 121.835 389.396 121.981 389.558 122.087L391.979 123.542L392.414 118.225Z" fill="#F4A28C"/>
<path opacity="0.31" d="M396.82 129.336C398.404 129.06 399.881 128.354 401.091 127.296C401.091 127.296 401.934 132.423 395.651 134.096L396.82 129.336Z" fill="#CE8172"/>
<path d="M400.139 121.679C400.139 121.679 401.159 119.095 403.05 120.02C404.94 120.945 403.485 124.712 400.683 124.1L400.139 121.679Z" fill="#F4A28C"/>
<path d="M369.308 280.473L358.224 330.888H364.67L386.253 280.473H369.308Z" fill="#F4A28C"/>
<path d="M405.402 274.352L417.22 330.888H423.707L422.728 273.958L405.402 274.352Z" fill="#F4A28C"/>
<path d="M358.224 330.888C358.224 330.888 354.634 335.431 350.064 335.2C345.495 334.968 344.801 341.456 352.172 340.789C354.468 340.595 356.743 340.203 358.972 339.62C361.027 339.147 363.17 339.222 365.187 339.837C365.583 339.927 365.996 339.894 366.373 339.744C366.749 339.593 367.071 339.332 367.295 338.994C369.376 336.546 364.249 330.834 364.249 330.834L358.224 330.888Z" fill="#65E2D9"/>
<path d="M423.232 330.888C423.232 330.888 426.823 335.431 431.392 335.2C435.962 334.968 436.642 341.456 429.271 340.789C426.975 340.595 424.7 340.203 422.471 339.62C420.415 339.147 418.272 339.222 416.255 339.837C415.86 339.927 415.447 339.894 415.07 339.744C414.694 339.593 414.372 339.332 414.147 338.994C412.066 336.546 417.194 330.834 417.194 330.834L423.232 330.888Z" fill="#65E2D9"/>
<path d="M395.012 103.646C393.957 104.048 393.017 104.701 392.272 105.55C391.528 106.398 391.002 107.416 390.742 108.514C390.293 110.527 390.66 112.934 393.883 114.58C400.316 117.858 403.131 115.695 402.587 119.857C402.043 124.018 395.066 138.475 409.387 137.537C423.708 136.598 419.057 127.908 416.473 122.794C413.889 117.681 413.753 113.274 412.828 109.942C411.998 106.855 404.654 99.824 395.012 103.646Z" fill="#24285B"/>
<path d="M393.04 145.656H406.15C406.15 145.656 407.048 145.656 408.598 145.656C437.158 146.567 453.818 178.296 438.627 202.599C430.181 216.091 420.09 234.274 419.424 245.14L368.437 242.556C368.437 242.556 372.313 209.495 362.861 190.591C362.821 190.591 345.44 160.847 393.04 145.656Z" fill="#65E2D9"/>
<path opacity="0.08" d="M420.961 155.924C420.961 155.924 399.554 164.084 409.496 198.383C414.677 216.281 368.696 214.336 368.696 214.336C368.696 214.336 369.539 228.072 369.063 234.314L392.482 235.552L421.042 237.415L422.402 233.335L431.079 217.015L431.881 195.758L425.081 183.926L420.961 155.924Z" fill="black"/>
<path d="M363.217 184.362L347.99 189.722L356.23 213.134L371.457 207.774L363.217 184.362Z" fill="#FFD200"/>
<path d="M369.009 234.328L421.069 237.062L434.969 289.803L359.72 287.11L369.009 234.328Z" fill="#24285B"/>
<path d="M416.16 165.444C416.065 163.12 416.703 160.824 417.984 158.882C419.265 156.941 421.123 155.45 423.297 154.622C425.471 153.794 427.85 153.669 430.098 154.267C432.346 154.864 434.35 156.152 435.826 157.95C443.199 166.832 447.103 178.085 446.814 189.625C446.379 220.483 442.218 253.885 375.659 217.382L379.25 207.604C379.25 207.604 408.789 221.802 421.124 217.192C430.236 213.86 417.139 186.687 416.16 165.444Z" fill="#F4A28C"/>
<path d="M379.29 207.603C379.29 207.603 368.192 202.326 363.46 207.603C358.727 212.88 366.248 217.599 375.7 217.381L379.29 207.603Z" fill="#F4A28C"/>
<path opacity="0.58" d="M453.261 325.569C453.261 325.569 441.442 322.401 438.831 311.425C438.831 311.425 457.109 307.645 457.708 326.521L453.261 325.569Z" fill="#65E2D9"/>
<path opacity="0.73" d="M454.702 324.401C454.702 324.401 446.406 311.386 453.614 299.173C453.614 299.173 467.568 307.945 461.448 324.401H454.702Z" fill="#65E2D9"/>
<path d="M456.838 324.401C456.838 324.401 461.135 310.611 474.3 307.945C474.3 307.945 476.803 316.881 465.841 324.401H456.838Z" fill="#65E2D9"/>
<path d="M448.27 324.128L450.731 340.489H465.8L467.962 324.128H448.27Z" fill="#24285B"/>
<path d="M250.58 339.742L246.282 336.423L262.684 315.248V234.328H268.124V317.098L250.58 339.742Z" fill="#A5A5A5"/>
<path d="M267.724 314.697L263.116 317.59L276.87 339.498L281.477 336.605L267.724 314.697Z" fill="#A5A5A5"/>
</svg>
