<svg width="544" height="408" viewBox="0 0 544 408" fill="none" xmlns="http://www.w3.org/2000/svg">
<path d="M240.013 180.717C240.013 180.717 270.64 184.878 267.92 229.582H242.433L240.013 180.717Z" fill="#65E2D9"/>
<path opacity="0.46" d="M242.433 229.582L240.013 180.717C240.013 180.717 270.64 184.878 267.92 229.582" fill="white"/>
<path d="M285.151 192.005C285.151 192.005 287.123 228.208 269.035 233.73C250.947 239.251 299.581 246.364 299.581 246.364L311.44 210.025L285.151 192.005Z" fill="#F4A28C"/>
<path d="M310.08 99.4025C310.08 99.4025 310.991 108.106 313.521 113.533C313.771 114.058 314.123 114.528 314.555 114.916C314.988 115.304 315.493 115.603 316.042 115.795C316.59 115.987 317.172 116.069 317.752 116.035C318.332 116.002 318.9 115.854 319.423 115.6C321.16 114.901 322.659 113.716 323.74 112.186C324.82 110.657 325.437 108.849 325.516 106.978L326.631 98.9673C326.692 97.3421 326.245 95.7384 325.353 94.3786C324.461 93.0188 323.168 91.9702 321.654 91.3785C316.132 88.8625 309.291 94.1121 310.08 99.4025Z" fill="#F4A28C"/>
<path d="M328.44 103.469L334.139 131.607L318.403 133.647L320.525 112.894L328.44 103.469Z" fill="#F4A28C"/>
<path d="M342.829 129.975C353.272 128.293 363.97 130.484 372.912 136.135C383.193 142.799 392.713 155.366 389.64 178.907C383.493 226.004 365.296 254.442 365.296 254.442L301.036 259.759C301.036 259.759 299.431 228.847 288.796 211.588C278.161 194.33 264.316 149.028 318.362 133.619L342.829 129.975Z" fill="#65E2D9"/>
<path d="M310.964 104.855L309.21 108.636C309.096 108.848 309.041 109.087 309.05 109.327C309.059 109.567 309.131 109.801 309.26 110.004C309.389 110.207 309.569 110.373 309.782 110.484C309.995 110.595 310.234 110.647 310.475 110.635H313.888L310.964 104.855Z" fill="#F4A28C"/>
<path opacity="0.31" d="M320.457 113.479C322.315 112.899 323.98 111.822 325.271 110.364C325.271 110.364 327.08 116.389 319.831 119.422L320.457 113.479Z" fill="#CE8172"/>
<path d="M321.123 103.618C321.123 103.618 320.552 100.286 323.095 100.069C325.638 99.8511 326.482 104.638 323.19 105.74L321.123 103.618Z" fill="#F4A28C"/>
<path d="M311.834 98.6541C314.657 98.7947 317.484 98.4638 320.198 97.6749C320.198 97.6749 323.068 107.195 331.01 108.704C331.01 108.704 336.641 93.4453 327.094 88.8621C319.083 85.0269 313.058 81.5045 307.537 87.7741C306.737 88.6821 306.204 89.7934 305.995 90.9853C305.787 92.1773 305.912 93.4036 306.357 94.5289C306.801 95.6543 307.548 96.6351 308.515 97.363C309.481 98.0909 310.63 98.5377 311.834 98.6541Z" fill="#24285B"/>
<path d="M331.581 92.902C336.396 92.902 340.299 88.999 340.299 84.1844C340.299 79.3698 336.396 75.4668 331.581 75.4668C326.767 75.4668 322.864 79.3698 322.864 84.1844C322.864 88.999 326.767 92.902 331.581 92.902Z" fill="#24285B"/>
<path d="M310.175 136.421C310.175 136.421 309.699 130.655 318.335 127.894C326.971 125.133 339.823 118.483 342.897 129.975L310.175 136.421Z" fill="#65E2D9"/>
<path opacity="0.46" d="M310.175 136.421C310.175 136.421 309.699 130.655 318.335 127.894C326.971 125.133 339.823 118.483 342.897 129.975L310.175 136.421Z" fill="white"/>
<path d="M320.62 102.775C320.62 102.775 320.62 98.8717 323.721 99.1165C326.822 99.3613 327.352 103.904 323.721 106.134L320.62 102.775Z" fill="#F4A28C"/>
<path d="M178.881 64.9531V92.1531H196.452L200.301 102.979L204.843 92.1531H222.414V64.9531H178.881Z" fill="#E6E6E6"/>
<path opacity="0.12" d="M198.451 84.619C198.253 84.6104 198.059 84.5585 197.882 84.4668C197.706 84.3752 197.552 84.2461 197.431 84.0886L192.834 78.1726C192.712 78.0329 192.62 77.8697 192.563 77.6929C192.506 77.5162 192.486 77.3296 192.504 77.1449C192.522 76.9601 192.578 76.7809 192.667 76.6185C192.757 76.456 192.879 76.3136 193.026 76.2002C193.173 76.0867 193.342 76.0045 193.522 75.9587C193.702 75.9129 193.889 75.9044 194.073 75.9337C194.256 75.963 194.431 76.0296 194.588 76.1293C194.744 76.229 194.879 76.3597 194.983 76.5134L198.56 81.1646L207.468 71.5358C207.72 71.2743 208.067 71.1238 208.43 71.1174C208.793 71.111 209.144 71.2493 209.406 71.5018C209.668 71.7543 209.818 72.1003 209.824 72.4637C209.831 72.8272 209.692 73.1783 209.44 73.4398L199.444 84.2382C199.313 84.3651 199.157 84.4642 198.986 84.5296C198.816 84.595 198.634 84.6254 198.451 84.619Z" fill="black"/>
<path d="M297.514 26.873V54.073H315.085L318.934 64.8986L323.476 54.073H341.047V26.873H297.514Z" fill="#E6E6E6"/>
<path opacity="0.12" d="M317.084 46.5389C316.887 46.532 316.693 46.4821 316.517 46.3929C316.341 46.3036 316.186 46.1771 316.064 46.0221L311.44 40.1061C311.329 39.9645 311.248 39.8023 311.2 39.629C311.152 39.4556 311.14 39.2745 311.162 39.0962C311.185 38.9179 311.243 38.7459 311.333 38.5901C311.422 38.4342 311.542 38.2978 311.685 38.1885C311.97 37.9691 312.33 37.8717 312.687 37.9176C313.044 37.9635 313.368 38.1489 313.589 38.4333L317.206 43.0845L326.114 33.4557C326.239 33.3262 326.389 33.2226 326.554 33.1508C326.719 33.079 326.896 33.0405 327.076 33.0373C327.256 33.0342 327.435 33.0665 327.603 33.1324C327.77 33.1984 327.923 33.2967 328.052 33.4217C328.182 33.5467 328.285 33.696 328.357 33.8611C328.429 34.0261 328.468 34.2037 328.471 34.3836C328.474 34.5636 328.442 34.7424 328.376 34.9099C328.31 35.0774 328.211 35.2302 328.086 35.3597L318.077 46.1581C317.945 46.285 317.79 46.3841 317.619 46.4495C317.449 46.515 317.267 46.5454 317.084 46.5389Z" fill="black"/>
<path d="M207.223 136.843C207.223 136.843 207.659 146.363 205.863 152.606C205.681 153.209 205.382 153.771 204.983 154.259C204.583 154.747 204.092 155.152 203.536 155.45C202.981 155.748 202.372 155.934 201.744 155.996C201.117 156.059 200.483 155.998 199.879 155.815C196.751 154.836 192.794 152.606 191.951 147.533L189.448 139.101C189.118 137.365 189.333 135.569 190.063 133.959C190.794 132.35 192.004 131.006 193.528 130.111C199.05 126.48 207.251 131.036 207.223 136.843Z" fill="#F4A28C"/>
<path d="M190.046 143.398L186.51 174.434L203.741 175.154L199.403 152.293L190.046 143.398Z" fill="#F4A28C"/>
<path d="M204.843 137.142C201.898 137.139 198.963 136.792 196.098 136.109C196.895 137.438 197.286 138.972 197.223 140.52C197.16 142.069 196.646 143.566 195.745 144.826C194.89 146.06 193.634 146.959 192.191 147.371C190.748 147.783 189.206 147.681 187.83 147.084L188.482 134.844C188.531 133.106 189.045 131.414 189.97 129.942C190.896 128.471 192.2 127.275 193.746 126.48C195.097 125.781 196.492 125.168 197.921 124.644C201.498 123.379 206.557 126.004 209.821 123.692C210.149 123.469 210.53 123.335 210.926 123.302C211.322 123.27 211.719 123.341 212.079 123.508C212.439 123.675 212.75 123.933 212.981 124.256C213.212 124.579 213.356 124.956 213.398 125.351C213.792 129.091 212.881 134.871 207.767 136.748C206.821 137.041 205.833 137.175 204.843 137.142Z" fill="#24285B"/>
<path d="M196.765 144.581C196.765 144.581 196.846 140.909 194.045 141.086C191.243 141.263 191.134 146.526 194.861 147.193L196.765 144.581Z" fill="#F4A28C"/>
<path d="M207.196 142.8L209.699 146.581C209.838 146.796 209.921 147.043 209.94 147.299C209.959 147.555 209.914 147.812 209.808 148.046C209.703 148.28 209.541 148.483 209.336 148.638C209.132 148.794 208.892 148.895 208.638 148.933L204.966 149.464L207.196 142.8Z" fill="#F4A28C"/>
<path opacity="0.31" d="M199.159 153.041C196.951 153.042 194.791 152.399 192.943 151.191C192.943 151.191 193.188 156.958 200.655 160.875L199.159 153.041Z" fill="#CE8172"/>
<path d="M227.12 176.365C227.12 176.365 159.977 163.499 137.034 176.365C114.09 189.23 162.207 308.965 162.207 308.965L232.927 306.734C232.927 306.734 294.807 188.673 227.12 176.365Z" fill="#65E2D9"/>
<path d="M227.773 230.139C227.773 230.139 235.715 220.538 241.155 221.898C246.595 223.258 246.595 234.614 231.404 239.809L227.773 230.139Z" fill="#F4A28C"/>
<path opacity="0.08" d="M154.673 183.056C154.673 183.056 176.555 192.766 174.855 225.406C173.155 258.046 218.484 243.086 244.093 229.132L231.404 276.08H140.515V213.846L154.673 183.056Z" fill="black"/>
<path d="M365.296 254.442L373.755 334.778L279.018 326.944L293.515 259.787L365.296 254.442Z" fill="#24285B"/>
<path opacity="0.08" d="M342.829 140.679C342.829 140.679 330.507 163.554 346.596 179.425C362.685 195.296 362.236 202.545 362.236 202.545L311.44 183.056L296.684 180.785L284.24 202.64C286.46 207.689 288.976 212.603 291.775 217.356L294.875 224.591L330.059 230.67C332.379 231.064 334.593 231.93 336.566 233.213C338.539 234.497 340.228 236.17 341.529 238.131C342.83 240.093 343.715 242.299 344.131 244.616C344.546 246.932 344.483 249.309 343.944 251.6L342.829 256.333L365.296 254.456C365.296 254.456 378.012 232.696 382.133 214.445C386.254 196.194 390.225 183.07 390.225 183.07L342.829 140.679Z" fill="black"/>
<path opacity="0.58" d="M415.589 261.745C415.589 261.745 403.063 258.332 400.343 246.676C400.343 246.676 419.75 242.746 420.294 262.779L415.589 261.745Z" fill="#65E2D9"/>
<path opacity="0.73" d="M417.126 260.508C417.126 260.508 408.367 246.677 416.079 233.729C416.079 233.729 430.835 243.113 424.239 260.535L417.126 260.508Z" fill="#65E2D9"/>
<path d="M419.383 260.521C419.383 260.521 424.007 245.901 437.988 243.141C437.988 243.141 440.599 252.661 428.931 260.562L419.383 260.521Z" fill="#65E2D9"/>
<path d="M410.298 260.195L412.842 277.562L428.835 277.63L431.188 260.277L410.298 260.195Z" fill="#24285B"/>
<path d="M451.262 284.471H92.7251V369.416H451.262V284.471Z" fill="#C9C9C9"/>
<path d="M128.044 182.879C117.749 194.874 108.161 218.96 121.774 265.2C122.716 268.389 124.346 271.332 126.55 273.821C128.754 276.311 131.477 278.287 134.528 279.608C137.579 280.93 140.882 281.566 144.206 281.471C147.529 281.376 150.791 280.552 153.762 279.058L231.404 239.768L226.399 226.426L152.524 252.96C152.524 252.96 166.274 210.528 157.284 187.571C156.177 184.801 154.37 182.366 152.041 180.503C149.711 178.639 146.939 177.411 143.994 176.939C141.048 176.466 138.031 176.765 135.236 177.806C132.44 178.847 129.963 180.595 128.044 182.879Z" fill="#65E2D9"/>
<path d="M191.855 277.876L194.575 269.267L221.109 267.39C223.036 267.255 224.885 266.578 226.444 265.437C228.003 264.297 229.209 262.739 229.921 260.944L246.16 220.32H315.071L295.12 276.339L191.855 277.876Z" fill="#FFD200"/>
<path opacity="0.46" d="M128.044 182.879C117.749 194.874 108.161 218.96 121.774 265.2C122.716 268.389 124.346 271.332 126.55 273.821C128.754 276.311 131.477 278.287 134.528 279.608C137.579 280.93 140.882 281.566 144.206 281.471C147.529 281.376 150.791 280.552 153.762 279.058L231.404 239.768L226.399 226.426L152.524 252.96C152.524 252.96 166.274 210.528 157.284 187.571C156.177 184.801 154.37 182.366 152.041 180.503C149.711 178.639 146.939 177.411 143.994 176.939C141.048 176.466 138.031 176.765 135.236 177.806C132.44 178.847 129.963 180.595 128.044 182.879Z" fill="white"/>
<path d="M451.262 276.107H92.7251V291.435H451.262V276.107Z" fill="#E6E6E6"/>
<path d="M274.924 253.164C278.176 253.164 280.813 250.528 280.813 247.276C280.813 244.023 278.176 241.387 274.924 241.387C271.672 241.387 269.035 244.023 269.035 247.276C269.035 250.528 271.672 253.164 274.924 253.164Z" fill="white"/>
<path opacity="0.08" d="M395.76 276.243C395.76 276.243 403.24 343.182 349.52 369.417H451.248V276.08L395.76 276.243Z" fill="black"/>
<path d="M295.569 180.717H302.736C305.043 180.72 307.255 181.639 308.887 183.27C310.518 184.902 311.436 187.113 311.44 189.421C311.44 190.564 311.215 191.696 310.777 192.752C310.34 193.808 309.699 194.767 308.891 195.575C308.082 196.384 307.123 197.025 306.067 197.462C305.011 197.9 303.879 198.125 302.736 198.125H295.569" stroke="#FFD200" stroke-width="2" stroke-miterlimit="10"/>
<path d="M342.625 143.358C342.606 141.009 343.16 138.692 344.239 136.607C345.319 134.521 346.891 132.731 348.819 131.391C350.748 130.051 352.974 129.202 355.305 128.917C357.636 128.632 360.001 128.921 362.195 129.758C371.865 133.375 385.03 141.413 398.235 159.12C423.844 193.46 431.324 202.3 420.784 214.2C410.244 226.1 322.075 199.92 322.075 199.92C322.075 199.92 303.035 196.86 306.285 186.32C309.536 175.78 325.244 187.68 325.244 187.68L388.348 193.46C388.348 193.46 343.169 172.72 342.625 143.358Z" fill="#F4A28C"/>
<path d="M301.376 176.201H280.813V202.585H301.376V176.201Z" fill="#24285B"/>
<path opacity="0.13" d="M291.475 194.956C294.975 194.956 297.813 192.119 297.813 188.619C297.813 185.119 294.975 182.281 291.475 182.281C287.975 182.281 285.138 185.119 285.138 188.619C285.138 192.119 287.975 194.956 291.475 194.956Z" fill="white"/>
<path opacity="0.08" d="M309.087 237.034C309.087 237.034 287.885 272.149 238 276.08L295.12 276.311L309.087 237.034Z" fill="black"/>
<path opacity="0.2" d="M301.376 176.201C301.376 176.201 305.374 163.961 295.569 159.283C285.763 154.604 278.283 154.849 280.813 136.421C283.342 117.993 279.099 107.072 258.794 103.468C238.489 99.8644 215.274 116.647 231.404 133.647C247.533 150.647 267.036 141.63 264.044 159.283C261.052 176.936 280.772 176.201 280.772 176.201H301.376Z" fill="#65E2D9"/>
</svg>
