<svg width="544" height="408" viewBox="0 0 544 408" fill="none" xmlns="http://www.w3.org/2000/svg">
<path d="M318.118 291.897C318.118 291.897 320.28 297.813 316.458 301.581C312.637 305.348 314.922 310.271 319.491 308.231C324.061 306.191 329.61 293.502 329.61 293.502L324.401 287.804L318.118 291.897Z" fill="#65E2D9"/>
<path opacity="0.08" d="M318.118 291.897C318.118 291.897 320.28 297.813 316.458 301.581C312.637 305.348 314.922 310.271 319.491 308.231C324.061 306.191 329.61 293.502 329.61 293.502L324.401 287.804L318.118 291.897Z" fill="black"/>
<path d="M292.999 263.609L316.88 292.862L323.721 287.912L300.683 240.04L292.999 249.873V263.609Z" fill="#24285B"/>
<path opacity="0.08" d="M292.999 249.873V263.609L316.88 292.863" fill="black"/>
<path d="M322.17 287.232C322.17 287.232 324.333 293.135 320.511 296.915C316.69 300.696 318.974 305.592 323.53 303.566C328.086 301.539 333.662 288.837 333.662 288.837L328.454 283.125L322.17 287.232Z" fill="#65E2D9"/>
<path d="M381.385 210.528C381.385 210.528 384.649 230.52 371.511 233.92C362.957 236.137 338.313 236.899 322.116 237.171C320.514 237.195 318.945 237.623 317.553 238.414C316.16 239.206 314.99 240.337 314.151 241.701C313.312 243.065 312.83 244.619 312.751 246.218C312.672 247.818 312.997 249.412 313.697 250.852L329.433 283.329L322.075 289.232L293.651 254.429C291.426 251.709 289.862 248.509 289.082 245.083C288.301 241.656 288.326 238.095 289.154 234.679C289.981 231.264 291.589 228.086 293.851 225.397C296.114 222.707 298.968 220.578 302.192 219.178L322.075 210.528H381.385Z" fill="#24285B"/>
<path d="M263.731 175.304C263.731 175.304 247.411 171.863 250.131 181.043L268.995 181.288L263.731 175.304Z" fill="#F4A28C"/>
<path opacity="0.08" d="M263.731 175.304C263.731 175.304 247.411 171.863 250.131 181.043L268.995 181.288L263.731 175.304Z" fill="black"/>
<path d="M298.602 101.116C295.512 100.001 292.168 99.7906 288.963 100.509C285.758 101.228 282.824 102.845 280.505 105.172C278.187 107.499 276.58 110.439 275.873 113.647C275.167 116.855 275.389 120.198 276.515 123.284L276.747 123.855C284.24 143.194 323.68 166.79 323.68 166.79L270.45 175.834L272.966 188.074C272.966 188.074 329.202 198.872 349.792 182.049C368.71 166.668 342.312 116.96 298.602 101.116Z" fill="#65E2D9"/>
<path opacity="0.08" d="M298.602 101.116C295.512 100.001 292.168 99.7906 288.963 100.509C285.758 101.228 282.824 102.845 280.505 105.172C278.187 107.499 276.58 110.439 275.873 113.647C275.167 116.855 275.389 120.198 276.515 123.284L276.747 123.855C284.24 143.194 323.68 166.79 323.68 166.79L270.45 175.834L272.966 188.074C272.966 188.074 329.202 198.872 349.792 182.049C368.71 166.668 342.312 116.96 298.602 101.116Z" fill="black"/>
<path opacity="0.28" d="M207.413 178.962H166.273V186.741H207.413V178.962Z" fill="#C9C9C9"/>
<path opacity="0.28" d="M193.133 171.184H166.273V178.963H193.133V171.184Z" fill="#C9C9C9"/>
<path opacity="0.45" d="M269.226 387.831C370.618 387.831 452.812 375.245 452.812 359.72C452.812 344.194 370.618 331.608 269.226 331.608C167.834 331.608 85.6392 344.194 85.6392 359.72C85.6392 375.245 167.834 387.831 269.226 387.831Z" fill="#E6E6E6"/>
<path d="M242.406 86.8633C242.406 86.8633 245.126 96.5873 248.989 102.259C249.369 102.807 249.854 103.274 250.416 103.635C250.978 103.995 251.605 104.241 252.262 104.359C252.919 104.476 253.593 104.463 254.245 104.319C254.896 104.176 255.514 103.906 256.061 103.523C258.89 101.524 262.126 97.9881 261.324 92.6433L261.12 83.3001C260.878 81.4433 260.065 79.7077 258.793 78.3335C257.521 76.9593 255.853 76.0144 254.021 75.6297C247.234 73.7665 240.489 81.0289 242.406 86.8633Z" fill="#F4A28C"/>
<path d="M251.532 80.5801L281.479 94.5065L272.626 110.459L254.851 94.3433L251.532 80.5801Z" fill="#F4A28C"/>
<path d="M241.808 86.8768C242.474 87.7064 243.902 86.7 244.895 86.3872C247.863 85.4248 250.707 84.1146 253.368 82.484C253.002 84.0783 253.11 85.7446 253.678 87.2786C254.246 88.8126 255.249 90.1476 256.564 91.12C261.201 94.5608 263.799 87.04 263.799 87.04L260.617 78.7712L260.331 76.432C260.08 73.5009 260.38 70.5488 261.215 67.728C261.339 67.0753 261.297 66.4018 261.093 65.7695C260.889 65.1373 260.528 64.5667 260.045 64.1104C256.931 60.4112 253.857 61.7576 250.525 66.5584C247.193 71.3592 244.895 62.3152 240.366 65.1304C235.837 67.9456 240.815 71.4816 237.469 73.3856C234.124 75.2896 227.773 76.364 230.887 81.0288C231.398 81.8548 232.11 82.5376 232.957 83.0134C233.804 83.4891 234.757 83.7421 235.729 83.7488C236.877 83.7536 238.009 84.0178 239.04 84.5218C240.072 85.0258 240.976 85.7565 241.685 86.6592L241.808 86.8768Z" fill="#24285B"/>
<path d="M255.449 91.229C255.449 91.229 254.17 87.5706 257.013 86.8362C259.855 86.1018 261.732 91.3786 258.196 93.2554L255.449 91.229Z" fill="#F4A28C"/>
<path d="M274.638 100.055L276.76 97.9202C280.815 93.8336 285.685 90.6472 291.053 88.5687C296.422 86.4902 302.168 85.5662 307.918 85.857C321.518 86.5914 339.293 91.0386 353.274 106.706C379.562 136.163 389.545 170.163 381.385 210.515H322.075C322.075 210.515 317.002 185.586 292.985 181.043C268.967 176.501 250.39 132.383 274.638 100.055Z" fill="#65E2D9"/>
<path opacity="0.58" d="M159.269 171.809C159.269 171.809 146.703 168.423 143.915 156.74C143.915 156.74 163.363 152.66 164.002 172.815L159.269 171.809Z" fill="#65E2D9"/>
<path opacity="0.73" d="M160.807 170.544C160.807 170.544 151.967 156.713 159.637 143.711C159.637 143.711 174.488 153.041 167.974 170.544H160.807Z" fill="#65E2D9"/>
<path d="M163.064 170.544C163.064 170.544 167.647 155.883 181.655 153.041C181.655 153.041 184.375 162.561 172.652 170.544H163.064Z" fill="#65E2D9"/>
<path d="M153.952 170.259L156.577 187.667H172.611L174.91 170.259H153.952Z" fill="#24285B"/>
<path opacity="0.08" d="M274.638 100.055C274.638 100.055 294.304 93.9484 315.52 114.648C375.469 173.128 309.25 188.89 309.25 188.89C309.25 188.89 320.429 199.308 322.061 210.528H381.371C381.371 210.528 393.407 166.708 368.057 126.575C368.057 126.575 347.208 86.3324 307.904 85.87C301.652 85.6002 295.418 86.7343 289.662 89.1889C283.905 91.6435 278.772 95.3564 274.638 100.055Z" fill="black"/>
<path d="M244.419 92.9014L243.127 97.5118C243.055 97.7747 243.05 98.0518 243.113 98.3173C243.176 98.5828 243.305 98.828 243.488 99.0302C243.671 99.2324 243.902 99.385 244.16 99.4738C244.418 99.5626 244.695 99.5847 244.963 99.5382L248.826 98.8854L244.419 92.9014Z" fill="#F4A28C"/>
<path d="M307.442 98.4643C304.352 97.3496 301.008 97.1392 297.803 97.8577C294.597 98.5762 291.663 100.194 289.345 102.521C287.027 104.848 285.42 107.788 284.713 110.996C284.006 114.204 284.229 117.546 285.355 120.632C285.437 120.823 285.505 121.013 285.586 121.217C293.107 140.543 332.534 164.139 332.534 164.139L279.303 173.183L281.819 185.423C281.819 185.423 338.055 196.207 358.646 179.384C377.55 164.016 351.152 114.24 307.442 98.4643Z" fill="#65E2D9"/>
<path opacity="0.46" d="M307.442 98.4643C304.352 97.3496 301.008 97.1392 297.803 97.8577C294.597 98.5762 291.663 100.194 289.345 102.521C287.027 104.848 285.42 107.788 284.713 110.996C284.006 114.204 284.229 117.546 285.355 120.632C285.437 120.823 285.505 121.013 285.586 121.217C293.107 140.543 332.534 164.139 332.534 164.139L279.303 173.183L281.819 185.423C281.819 185.423 338.055 196.207 358.646 179.384C377.55 164.016 351.152 114.24 307.442 98.4643Z" fill="white"/>
<path d="M280.772 175.073C280.772 175.073 263.989 169.769 262.48 175.739C260.97 181.71 281.601 184.416 281.601 184.416L280.772 175.073Z" fill="#F4A28C"/>
<path d="M300.682 186.741H143.915V201.701H300.682V186.741Z" fill="#E6E6E6"/>
<path d="M275.006 186.741L274.271 181.342L215.424 180.608L189.162 128.588L182.362 130.628L208.202 186.741H275.006Z" fill="#FFD200"/>
<path d="M364.085 255.639H355.477V361.8H364.085V255.639Z" fill="#FFD200"/>
<path opacity="0.08" d="M364.085 255.639H355.477V361.8H364.085V255.639Z" fill="black"/>
<path d="M355.477 343.808H364.086L383.398 355.776C383.998 356.148 384.46 356.707 384.714 357.365C384.969 358.024 385.002 358.748 384.808 359.428C384.615 360.107 384.205 360.705 383.641 361.13C383.078 361.556 382.391 361.786 381.684 361.787H341.483C340.804 361.784 340.143 361.569 339.593 361.171C339.043 360.774 338.631 360.214 338.415 359.571C338.199 358.927 338.189 358.232 338.388 357.583C338.587 356.935 338.985 356.364 339.524 355.952L355.477 343.808Z" fill="#FFD200"/>
<path d="M393.108 231.159H327.95V255.639H393.108V231.159Z" fill="#FFD200"/>
<path d="M292.998 201.688H143.915V359.42H292.998V201.688Z" fill="#C9C9C9"/>
<path opacity="0.08" d="M260.794 90.8484L274.639 100.056L281.439 94.5068L263.419 86.1292L260.576 78.7444C259.918 75.0666 260.123 71.2863 261.175 67.7012C261.175 67.7012 255.313 70.6796 257.353 78.9484C258.219 82.9909 259.369 86.9674 260.794 90.8484Z" fill="black"/>
<path opacity="0.08" d="M289.599 102.286C289.599 102.286 309.931 101.905 326.591 122.808C343.251 143.711 358.714 155.625 351.751 168.028C344.787 180.431 313.317 188.809 313.317 188.809C313.317 188.809 356.361 191.067 363.324 173.087C363.324 173.087 369.281 161.704 357.367 140.556C357.367 140.556 339.687 108.46 307.442 98.4642C307.442 98.4642 296.807 94.1802 289.599 102.286Z" fill="black"/>
<path d="M417.302 105.727C437.147 105.727 453.233 89.6397 453.233 69.7955C453.233 49.9512 437.147 33.8643 417.302 33.8643C397.458 33.8643 381.371 49.9512 381.371 69.7955C381.371 89.6397 397.458 105.727 417.302 105.727Z" fill="#E6E6E6"/>
<path d="M417.302 93.9623C430.65 93.9623 441.47 83.1423 441.47 69.7951C441.47 56.448 430.65 45.6279 417.302 45.6279C403.955 45.6279 393.135 56.448 393.135 69.7951C393.135 83.1423 403.955 93.9623 417.302 93.9623Z" fill="#F2F2F2"/>
<path d="M417.302 53.0674V69.7954L423.993 75.453" stroke="#A5A5A5" stroke-width="2" stroke-linecap="round" stroke-linejoin="round"/>
<path opacity="0.08" d="M189.72 186.741C189.72 186.741 159.12 263.948 189.72 305.061C220.32 346.174 251.532 359.461 251.532 359.461H143.915V186.741H189.72Z" fill="black"/>
<path d="M202.286 81.3555H161.541V105.223H202.286V81.3555Z" fill="#E6E6E6"/>
<path d="M178.758 105.224L182.009 114.893L185.028 105.224H178.758Z" fill="#E6E6E6"/>
<path d="M172.897 95.1046C174.422 95.1046 175.658 93.8686 175.658 92.3438C175.658 90.8191 174.422 89.583 172.897 89.583C171.372 89.583 170.136 90.8191 170.136 92.3438C170.136 93.8686 171.372 95.1046 172.897 95.1046Z" fill="#C9C9C9"/>
<path d="M181.9 95.1046C183.425 95.1046 184.661 93.8686 184.661 92.3438C184.661 90.8191 183.425 89.583 181.9 89.583C180.375 89.583 179.139 90.8191 179.139 92.3438C179.139 93.8686 180.375 95.1046 181.9 95.1046Z" fill="#C9C9C9"/>
<path d="M190.93 95.1046C192.455 95.1046 193.691 93.8686 193.691 92.3438C193.691 90.8191 192.455 89.583 190.93 89.583C189.405 89.583 188.169 90.8191 188.169 92.3438C188.169 93.8686 189.405 95.1046 190.93 95.1046Z" fill="#C9C9C9"/>
</svg>
