<svg width="545" height="410" viewBox="0 0 545 410" fill="none" xmlns="http://www.w3.org/2000/svg">
<path opacity="0.18" d="M74.3868 242.322C74.3868 240.266 42.8023 176.974 105.971 134.934C169.14 92.8944 212.269 95.8214 256.188 124.724C300.107 153.626 575.872 106.005 464.959 327.654L386.447 336.163L175.008 330.554L74.3868 242.322Z" fill="#5C546A"/>
<path opacity="0.58" d="M456.804 305.708C456.804 305.708 439.732 301.079 435.879 285.164C435.879 285.164 462.386 279.719 463.243 307.069L456.804 305.708Z" fill="#65E2D9"/>
<path opacity="0.73" d="M458.9 303.979C458.9 303.979 446.866 285.124 457.308 267.398C457.308 267.398 477.524 280.128 468.675 303.979H458.9Z" fill="#65E2D9"/>
<path d="M461.977 303.98C461.977 303.98 468.212 283.981 487.299 280.128C487.299 280.128 490.934 293.075 475.046 303.98H461.977Z" fill="#65E2D9"/>
<path d="M449.561 303.585L453.128 327.301H474.992L478.11 303.585H449.561Z" fill="#303A52"/>
<path d="M395.8 327.3L412.586 270.407H331.051L319.221 316.831L289.678 318.41V327.3H395.8Z" fill="#C9C9C9"/>
<path d="M500.995 327.3H54.8235V345.025H500.995V327.3Z" fill="#E6E6E6"/>
<path opacity="0.4" d="M500.995 345.039H54.8235V360.913H500.995V345.039Z" fill="#A5A5A5"/>
<path d="M128.135 229.865C128.135 229.865 160.291 206.721 197.811 211.527C235.331 216.333 249.735 225.74 252.39 269.836C255.044 313.931 234.297 360.9 234.297 360.9L172.789 360.341L128.135 229.865Z" fill="#65E2D9"/>
<path opacity="0.08" d="M151.36 217.925C151.36 217.925 182.455 234.166 185.64 276.002C188.826 317.838 194.462 347.857 239.402 347.639L234.297 360.899L172.789 360.341L128.135 229.864C128.135 229.864 142.307 220.933 151.36 217.925Z" fill="black"/>
<path d="M48.2888 360.341H172.775C172.775 360.341 175.648 289.984 153.457 249.578C131.266 209.171 -10.4283 213.365 48.2888 360.341Z" fill="#303A52"/>
<path d="M160.822 193.57L168.473 212.875L151.36 217.926L146.623 189.159L160.822 193.57Z" fill="#F4A28C"/>
<path d="M139.87 174.198C143.042 166.22 153.593 164.491 159.515 170.699C166.023 177.506 173.892 188.397 165.179 194.387C151.837 203.631 139.312 186.736 139.312 186.736C138.259 182.593 138.453 178.231 139.87 174.198Z" fill="#F4A28C"/>
<path d="M144.771 186.082C144.771 186.082 140.483 184.72 140.687 189.118C140.891 193.515 147.194 192.971 148.079 190.37C148.964 187.77 144.771 186.082 144.771 186.082Z" fill="#F4A28C"/>
<path d="M199.037 247.168C195.946 228.476 217.021 215.285 232.513 226.189C242.465 233.201 251.927 244.119 257.018 261.15C271.123 307.996 296.39 336.027 361.193 320.112L365.073 336.83C365.073 336.83 221.908 385.31 199.037 247.168Z" fill="#F4A28C"/>
<path d="M136.739 182.052C136.739 182.052 140.17 197.177 148.134 197.15C156.098 197.123 155.472 192.018 153.838 182.052C152.204 172.087 164.035 175.041 162.442 163.66C160.849 152.279 160.087 152.769 149.672 153.436C139.257 154.103 126.052 162.911 136.739 182.052Z" fill="#FFD200"/>
<path d="M365.93 317.961C365.93 317.961 373.65 313.509 380.416 315.238C387.182 316.967 388.053 326.687 381.627 329.846L368.762 336.162L365.93 317.961Z" fill="#F4A28C"/>
<path d="M465.762 69.6553H273.369V216.877H465.762V69.6553Z" fill="#303A52"/>
<path d="M376.903 83.8135L388.911 110.252L373.282 121.837L370.178 96.9646L376.903 83.8135Z" fill="#F4A28C"/>
<path opacity="0.31" d="M370.301 97.6726C370.301 97.6726 380.116 96.1478 381.369 93.248C381.369 93.248 389.619 108.128 371.839 109.585L370.301 97.6726Z" fill="#CE8172"/>
<path d="M363.752 130.796C363.752 130.796 284.287 197.967 254.949 117.972L241.335 126.14C241.335 126.14 250.865 227.387 370.287 181.426L363.752 130.796Z" fill="#65E2D9"/>
<path opacity="0.2" d="M363.752 130.796C363.752 130.796 284.287 197.967 254.949 117.972L241.335 126.14C241.335 126.14 250.865 227.387 370.287 181.426L363.752 130.796Z" fill="white"/>
<path d="M373.282 121.838C373.282 121.838 342.8 144.396 352.425 170.317C362.05 196.238 383.914 216.877 383.914 216.877H465.789C465.789 216.877 464.904 196.66 462.522 174.551C459.091 142.735 447.546 105.868 388.938 110.252L373.282 121.838Z" fill="#65E2D9"/>
<path opacity="0.08" d="M418.467 130.796C418.467 130.796 407.576 141.782 412.082 155.71C416.588 169.637 431.645 213.95 397.991 209.757L425.124 213.038L453.468 209.757L465.952 180.242L443.925 149.148L418.467 130.796Z" fill="black"/>
<path d="M300.638 89.4639V129.693L341.33 107.829L300.638 89.4639Z" fill="white"/>
<path d="M350.547 216.877L337.954 167.826H408.256L415.063 207.851L443.925 209.213V216.877H350.547Z" fill="#FFD200"/>
<path d="M339.37 278.167L329.132 314.843H387.808L397.814 278.167H339.37Z" fill="white"/>
<path d="M378.265 197.94C381.558 197.94 384.228 195.27 384.228 191.977C384.228 188.683 381.558 186.014 378.265 186.014C374.971 186.014 372.302 188.683 372.302 191.977C372.302 195.27 374.971 197.94 378.265 197.94Z" fill="white"/>
<path d="M243.69 124.751C243.69 124.751 232.323 113.628 237.782 104.793C243.241 95.9571 256.297 97.3457 254.936 117.971L243.69 124.751Z" fill="#F4A28C"/>
<path d="M438.629 120.558C449.017 125.132 459.867 132.987 465.952 146.506L465.762 216.945H451.658L445.722 204.828C445.722 204.828 452.992 175.504 430.039 153C426.75 149.803 423.722 146.347 420.985 142.667C412.177 130.564 424.988 114.486 438.629 120.558Z" fill="#65E2D9"/>
<path opacity="0.2" d="M438.629 120.558C449.017 125.132 459.867 132.987 465.952 146.506L465.762 216.945H451.658L445.722 204.828C445.722 204.828 452.992 175.504 430.039 153C426.75 149.803 423.722 146.347 420.985 142.667C412.177 130.564 424.988 114.486 438.629 120.558Z" fill="white"/>
<path d="M381.287 86.0057C381.151 88.418 381.151 90.836 381.287 93.2483C381.532 96.5701 380.987 101.58 375.841 103.091C367.972 105.433 364.487 92.9624 364.487 92.9624C364.487 92.9624 358.17 81.5947 366.693 79.0353C374.453 76.7345 381.723 74.8966 381.287 86.0057Z" fill="#F4A28C"/>
<path d="M359.818 74.9922C358.002 75.9124 356.587 77.4675 355.842 79.3622C355.419 80.2951 355.276 81.3311 355.43 82.3439C355.585 83.3567 356.031 84.3026 356.714 85.0665C360.321 88.8376 364.569 92.9626 364.569 92.9626C364.569 92.9626 361.302 86.5232 367.06 86.5232C372.819 86.5232 377.761 90.3487 381.287 85.9923C384.813 81.6358 387.1 79.1853 385.507 75.1011C383.915 71.0169 384.146 65.653 377.897 67.9946C371.648 70.3362 374.072 65.5168 370.518 62.4128C366.965 59.3088 361.22 59.7717 361.724 64.1282C362.132 67.9129 363.398 73.0181 359.818 74.9922Z" fill="#FFD200"/>
<path d="M365.127 93.4249C365.127 93.4249 364.256 89.613 360.92 90.1303C357.585 90.6476 359.654 97.7133 365.127 93.4249Z" fill="#F4A28C"/>
<path d="M380.116 93.4657C380.116 93.4657 378.537 89.8988 381.478 88.3196C384.418 86.7404 387.073 93.6563 380.116 93.4657Z" fill="#F4A28C"/>
<path d="M214.502 294L260.572 271.755C260.572 271.755 254.745 221.261 214.502 217.925C174.259 214.59 200.126 279.719 214.502 294Z" fill="#65E2D9"/>
<path opacity="0.2" d="M214.502 294L260.572 271.755C260.572 271.755 254.745 221.261 214.502 217.925C174.259 214.59 200.126 279.719 214.502 294Z" fill="white"/>
<path d="M355.23 288.064L351.132 303.516L374.33 295.797L355.23 288.064Z" fill="#A5A5A5"/>
<path d="M451.658 216.877C451.667 213.37 450.374 209.985 448.03 207.377C445.686 204.768 442.457 203.123 438.969 202.759C434.885 202.35 431.25 202.963 430.284 206.135C427.888 213.99 443.898 216.877 443.898 216.877H451.658Z" fill="#F4A28C"/>
<path opacity="0.31" d="M151.36 217.926L158.317 215.884L153.566 195.435C153.566 195.435 144.254 192.182 144.376 179.902C144.376 179.902 132.791 169.936 145.942 154.035C145.942 154.035 134.193 156.132 132.818 168.003C132.756 172.973 134.117 177.857 136.739 182.08C136.739 182.08 140.197 197.205 148.134 197.178L151.36 217.926Z" fill="#CE8172"/>
<path d="M365.509 317.3L353.6 320.292L358.714 340.652L370.624 337.661L365.509 317.3Z" fill="#303A52"/>
<path d="M362.091 336.803C366.4 336.803 369.892 333.31 369.892 329.002C369.892 324.694 366.4 321.201 362.091 321.201C357.783 321.201 354.29 324.694 354.29 329.002C354.29 333.31 357.783 336.803 362.091 336.803Z" fill="#FFD200"/>
<path opacity="0.31" d="M231.302 285.887C231.302 285.887 254.541 355.822 356.768 333.018L358.238 338.859C358.238 338.859 255.766 370.525 214.502 294.001L231.302 285.887Z" fill="#CE8172"/>
<path opacity="0.08" d="M231.302 285.886L214.502 294.055C214.502 294.055 179.514 245.262 198.737 222.173C198.764 222.118 206.347 266.228 231.302 285.886Z" fill="black"/>
<path d="M387.25 106.59C387.25 106.59 370.818 112.39 370.178 124.411C370.178 124.411 387.087 123.39 395.064 109.939C394.284 108.626 393.107 107.593 391.703 106.992C390.298 106.39 388.739 106.249 387.25 106.59Z" fill="white"/>
</svg>
