<svg width="64" height="64" viewBox="0 0 64 64" fill="none" xmlns="http://www.w3.org/2000/svg">
<g clip-path="url(#clip0)">
<path d="M52.3137 15.9947L42.1828 28.0801L35.4909 28.4351L35.8458 21.7432L47.9327 11.6107L48.686 5.81495C42.2467 1.69868 34.514 0.105765 26.9721 1.34196C19.4302 2.57816 12.6107 6.55636 7.82242 12.5129C3.0342 18.4695 0.614713 25.9847 1.0284 33.6161C1.44208 41.2474 4.65978 48.457 10.0638 53.8611C15.4679 59.2652 22.6776 62.4828 30.3089 62.8965C37.9402 63.3102 45.4554 60.8907 51.412 56.1025C57.3686 51.3143 61.3468 44.4947 62.583 36.9528C63.8192 29.411 62.2262 21.6782 58.11 15.239L52.3137 15.9947Z" fill="#65E2D9"/>
<path d="M42.1827 28.08L35.4908 28.435L35.8458 21.7431L46.1256 13.1266C41.3627 9.54631 35.4196 7.90477 29.4944 8.53286C23.5691 9.16095 18.1023 12.012 14.1958 16.5112C10.2894 21.0104 8.23385 26.8232 8.44356 32.778C8.65327 38.7328 11.1126 44.3866 15.3259 48.5999C19.5392 52.8132 25.193 55.2725 31.1478 55.4823C37.1026 55.692 42.9154 53.6364 47.4146 49.73C51.9139 45.8235 54.7649 40.3567 55.3929 34.4314C56.021 28.5062 54.3795 22.5631 50.7992 17.8002L42.1827 28.08Z" fill="#4FABF7"/>
<path d="M42.1827 28.0803L35.4908 28.4352L35.8458 21.7434L40.1769 18.1136C36.8086 16.1178 32.8277 15.4201 28.9814 16.1512C25.1351 16.8824 21.688 18.9923 19.287 22.0849C16.886 25.1774 15.6963 29.0399 15.9412 32.9474C16.1861 36.8549 17.8487 40.5387 20.617 43.3073C23.3854 46.0758 27.069 47.7388 30.9765 47.9841C34.8839 48.2293 38.7466 47.0399 41.8393 44.6392C44.9321 42.2385 47.0423 38.7915 47.7738 34.9453C48.5053 31.0991 47.8079 27.1181 45.8124 23.7496L42.1827 28.0803Z" fill="#73C3F9"/>
<path d="M35.4908 28.4351L35.7158 24.1925C33.8814 23.307 31.7928 23.0996 29.8201 23.607C27.8473 24.1144 26.1179 25.3038 24.9384 26.9644C23.7589 28.6251 23.2054 30.6497 23.376 32.6795C23.5467 34.7093 24.4304 36.6131 25.8707 38.0535C27.3109 39.4939 29.2146 40.3779 31.2444 40.5488C33.2741 40.7197 35.2988 40.1665 36.9596 38.9871C38.6204 37.8078 39.8101 36.0786 40.3177 34.1059C40.8253 32.1332 40.6181 30.0446 39.7329 28.21L35.4908 28.4351Z" fill="#FCF9F0"/>
<path d="M52.3152 15.9922L61.5416 14.793L62.9922 13.3428L56.7857 10.6589L52.3152 15.9922Z" fill="#FFC839"/>
<path d="M47.9338 11.6109L49.1331 2.38453L50.5833 0.933838L53.2671 7.14034L47.9338 11.6109Z" fill="#FFC839"/>
<path d="M56.7857 10.6588L53.267 7.14014L35.8458 21.7431L35.56 27.1337L31.3862 31.308C31.2229 31.4713 31.1311 31.6929 31.1311 31.9238C31.1311 32.1548 31.2229 32.3763 31.3862 32.5397C31.5495 32.703 31.771 32.7947 32.002 32.7947C32.233 32.7947 32.4545 32.703 32.6178 32.5397L36.7917 28.3658L42.1827 28.0801L56.7857 10.6588Z" fill="#8EEF5B"/>
</g>
<defs>
<clipPath id="clip0">
<rect width="63.7229" height="63.7229" fill="white" transform="translate(0.140625 0.0639648)"/>
</clipPath>
</defs>
</svg>
